<svg xmlns="http://www.w3.org/2000/svg" width="16" height="16" viewBox="0 0 16 16">
  <g id="audience-icon" transform="translate(-2 -2)">
    <path id="Oval-7" d="M6,15.745a7,7,0,0,0,8,0V15.5A2.5,2.5,0,0,0,11.5,13h-3A2.5,2.5,0,0,0,6,15.5Zm-.956-.8A3.5,3.5,0,0,1,8.5,12h3a3.5,3.5,0,0,1,3.456,2.944,7,7,0,1,0-9.912,0ZM10,18a8,8,0,1,1,8-8A8,8,0,0,1,10,18Z" fill="#272c38"/>
    <path id="Oval-5" d="M10,10A2,2,0,1,0,8,8,2,2,0,0,0,10,10Zm0,1a3,3,0,1,1,3-3A3,3,0,0,1,10,11Z" fill="#272c38"/>
  </g>
</svg>
