<svg id="copy" xmlns="http://www.w3.org/2000/svg" width="16" height="16" viewBox="0 0 16 16">
  <g id="copy-2" data-name="copy">
    <path id="line" d="M1,10H0V2A2.006,2.006,0,0,1,2,0h8V1H2A1,1,0,0,0,1,2Z" fill="#212121"/>
    <path id="paper" d="M11,4.2V8h3.8ZM15,9H11a.945.945,0,0,1-1-1V4H4.5a.472.472,0,0,0-.5.5v10a.472.472,0,0,0,.5.5h10a.472.472,0,0,0,.5-.5ZM11,3c.1,0,.3.1.4.1l4.5,4.5c0,.1.1.3.1.4v6.5A1.538,1.538,0,0,1,14.5,16H4.5A1.538,1.538,0,0,1,3,14.5V4.5A1.538,1.538,0,0,1,4.5,3Z" fill="#212121"/>
  </g>
</svg>
