<svg xmlns="http://www.w3.org/2000/svg" width="14" height="16.003" viewBox="0 0 14 16.003">
  <g id="notification-on" transform="translate(0)">
    <path id="bel" d="M11.2,9.9a.5.5,0,0,1-.2-.4V6.23A3.995,3.995,0,0,0,3.01,6.206L3,9.52a.5.5,0,0,1-.2.4L1,11.252V13H13V11.25ZM4.55,14H.5a.5.5,0,0,1-.5-.5V11a.5.5,0,0,1,.2-.4L2,9.265,2.011,6.2A4.99,4.99,0,0,1,6.5,1.254V0h1V1.254A5,5,0,0,1,12,6.229v3.02L13.8,10.6a.5.5,0,0,1,.2.4v2.5a.5.5,0,0,1-.5.5H9.45a2.5,2.5,0,0,1-4.9,0Zm1.035,0a1.5,1.5,0,0,0,2.83,0Z" fill="#8d9096"/>
  </g>
</svg>
