<svg xmlns="http://www.w3.org/2000/svg" width="69.692" height="24" viewBox="0 0 69.692 24">
  <g id="Layer_2" data-name="Layer 2" transform="translate(0 0)">
    <g id="Layer_1" data-name="Layer 1" transform="translate(0 0)">
      <path id="Path_148" data-name="Path 148" d="M225.628,79.55V78.524a8.532,8.532,0,0,0-.482-3,5.8,5.8,0,0,0-1.345-2.135,5.609,5.609,0,0,0-2.016-1.275,7.138,7.138,0,0,0-2.485-.425,6.6,6.6,0,0,0-3.449.877,5.956,5.956,0,0,0-2.275,2.445,8.74,8.74,0,0,0,0,7.334,5.721,5.721,0,0,0,2.3,2.4,7.153,7.153,0,0,0,3.574.846,7.835,7.835,0,0,0,2.94-.513,5.387,5.387,0,0,0,2.085-1.437,4.706,4.706,0,0,0,1.074-2.17l-3.455-.231a2.288,2.288,0,0,1-.561.858,2.368,2.368,0,0,1-.885.526,3.538,3.538,0,0,1-1.138.179,3.189,3.189,0,0,1-1.622-.395,2.663,2.663,0,0,1-1.056-1.121,3.75,3.75,0,0,1-.372-1.727v-.008Zm-7.77-4.685a2.878,2.878,0,0,1,1.5-.39,2.829,2.829,0,0,1,1.433.355,2.556,2.556,0,0,1,.968.978,2.868,2.868,0,0,1,.351,1.429h-5.648a2.94,2.94,0,0,1,.372-1.328A2.8,2.8,0,0,1,217.858,74.865Z" transform="translate(-196.928 -66.349)" fill="#17a68c"/>
      <path id="Path_149" data-name="Path 149" d="M410.66,85.111V71.648h3.62V74h.141a3.494,3.494,0,0,1,1.236-1.9,3.261,3.261,0,0,1,2-.644,5.717,5.717,0,0,1,.6.035,4.335,4.335,0,0,1,.57.1V74.9a4.827,4.827,0,0,0-.727-.141,6.53,6.53,0,0,0-.85-.061,2.99,2.99,0,0,0-1.468.355,2.634,2.634,0,0,0-1.016.984,2.806,2.806,0,0,0-.372,1.455v7.62Z" transform="translate(-380.084 -66.134)" fill="#17a68c"/>
      <path id="Path_150" data-name="Path 150" d="M546.3,3.778a2.018,2.018,0,0,1-1.429-.557,1.762,1.762,0,0,1-.6-1.336,1.753,1.753,0,0,1,.6-1.328,2.106,2.106,0,0,1,2.853,0,1.76,1.76,0,0,1,.592,1.328,1.77,1.77,0,0,1-.592,1.34,2,2,0,0,1-1.424.553Zm-1.885,15.2V5.514h3.734V18.977Z" transform="translate(-503.755 0)" fill="#17a68c"/>
      <path id="Path_151" data-name="Path 151" d="M627.625,6.893a1.593,1.593,0,0,1,.325-1.065,1.447,1.447,0,0,1,1.148-.381,3.458,3.458,0,0,1,.653.061,4.7,4.7,0,0,1,.539.132l.667-2.8a10.771,10.771,0,0,0-1.064-.237,8.69,8.69,0,0,0-1.573-.132,5.156,5.156,0,0,0-2.27.482A3.634,3.634,0,0,0,624.476,4.4a4.7,4.7,0,0,0-.574,2.428V7.8H622v2.8h1.9V21.26h3.723V10.6h2.68V7.8h-2.68Z" transform="translate(-575.689 -2.283)" fill="#17a68c"/>
      <path id="Path_152" data-name="Path 152" d="M756.444,92.546a7.625,7.625,0,0,1-1.329-.11,5.433,5.433,0,0,1-1.021-.267l.841-2.8a3.387,3.387,0,0,0,1.67.162,1.6,1.6,0,0,0,1.075-1.057l.219-.57L753.07,74.06H757l2.788,9.888h.141l2.814-9.888,3.953.017-5.234,14.9a6.3,6.3,0,0,1-1.021,1.88A4.337,4.337,0,0,1,758.81,92.1,5.734,5.734,0,0,1,756.444,92.546Z" transform="translate(-697 -68.546)" fill="#17a68c"/>
      <path id="Path_153" data-name="Path 153" d="M57.94,13.77,53.592,27.409h-.167l-1.013-3.183H48.48l2.587,7.5h4.891L62.147,13.77Z" transform="translate(-44.87 -12.745)" fill="#17a68c"/>
      <path id="Path_154" data-name="Path 154" d="M4.216,13.77H0L2.807,21.9h4Z" transform="translate(0 -12.745)" fill="#17a68c" opacity="0.6"/>
    </g>
  </g>
</svg>
