<svg id="System_icons-_Global_-" data-name="System icons- Global -" xmlns="http://www.w3.org/2000/svg" width="16" height="16" viewBox="0 0 16 16">
  <g id="Group_128" data-name="Group 128">
    <path id="Icon_colour" data-name="Icon colour" d="M8,16a8,8,0,1,1,8-8,8,8,0,0,1-8,8ZM1.093,8.533a6.956,6.956,0,0,0,5,6.125A9.11,9.11,0,0,1,3.582,8.533H1.093Zm11.324,0a9.118,9.118,0,0,1-2.5,6.116,6.954,6.954,0,0,0,4.986-6.116Zm-3.884,0v5.884a7.529,7.529,0,0,0,2.813-5.884Zm-3.881,0a7.523,7.523,0,0,0,2.813,5.884V8.533ZM8.533,1.581V7.467h2.813A7.536,7.536,0,0,0,8.533,1.581Zm1.388-.232a9.114,9.114,0,0,1,2.5,6.117h2.489A6.954,6.954,0,0,0,9.922,1.35Zm-2.454.232A7.53,7.53,0,0,0,4.653,7.466H7.467V1.581ZM6.09,1.34a6.956,6.956,0,0,0-5,6.126H3.582A9.111,9.111,0,0,1,6.09,1.34Z" fill="#272c38"/>
  </g>
</svg>
